inDegrees=no
num_controls=7
num_derivatives=13
num_iterations=60
num_multipliers=7
num_parameters=0
num_slacks=7
num_states=26
objective=0.341361
objective_accelerations=0.041866
objective_balance=0.003230
objective_effort=0.025255
objective_height=0.264606
objective_ligament=0.006404
solver_duration=885.056718
status=Solve_Succeeded
success=true
DataType=double
version=3
OpenSimVersion=4.5
endheader
time	/jointset/ground_pelvis/pelvis_tilt/value	/jointset/ground_pelvis/pelvis_tx/value	/jointset/ground_pelvis/pelvis_ty/value	/jointset/hip_l/hip_flexion_l/value	/jointset/hip_l/hip_adduction_l/value	/jointset/hip_l/hip_rotation_l/value	/jointset/back/lumbar_extension/value	/jointset/patellofemoral_l/patellar_flexion_l/value	/jointset/knee_l/knee_flexion_l/value	/jointset/knee_l/knee_adduction_l/value	/jointset/knee_l/knee_rotation_l/value	/jointset/ankle_l/ankle_angle_l/value	/jointset/subtalar_l/subtalar_angle_l/value	/jointset/ground_pelvis/pelvis_tilt/speed	/jointset/ground_pelvis/pelvis_tx/speed	/jointset/ground_pelvis/pelvis_ty/speed	/jointset/hip_l/hip_flexion_l/speed	/jointset/hip_l/hip_adduction_l/speed	/jointset/hip_l/hip_rotation_l/speed	/jointset/back/lumbar_extension/speed	/jointset/patellofemoral_l/patellar_flexion_l/speed	/jointset/knee_l/knee_flexion_l/speed	/jointset/knee_l/knee_adduction_l/speed	/jointset/knee_l/knee_rotation_l/speed	/jointset/ankle_l/ankle_angle_l/speed	/jointset/subtalar_l/subtalar_angle_l/speed	/forceset/tau_hip_flexion_l	/forceset/tau_hip_adduction_l	/forceset/tau_hip_rotation_l	/forceset/tau_knee_flexion_l	/forceset/tau_ankle_angle_l	/forceset/tau_subtalar_angle_l	/forceset/tau_lumbar_extension	lambda_cid13_p0	lambda_cid13_p1	lambda_cid13_p2	lambda_cid13_p3	lambda_cid13_p4	lambda_cid13_p5	lambda_cid14_p0	/jointset/ground_pelvis/pelvis_tilt/accel	/jointset/ground_pelvis/pelvis_tx/accel	/jointset/ground_pelvis/pelvis_ty/accel	/jointset/hip_l/hip_flexion_l/accel	/jointset/hip_l/hip_adduction_l/accel	/jointset/hip_l/hip_rotation_l/accel	/jointset/back/lumbar_extension/accel	/jointset/patellofemoral_l/patellar_flexion_l/accel	/jointset/knee_l/knee_flexion_l/accel	/jointset/knee_l/knee_adduction_l/accel	/jointset/knee_l/knee_rotation_l/accel	/jointset/ankle_l/ankle_angle_l/accel	/jointset/subtalar_l/subtalar_angle_l/accel	gamma_cid13_p0	gamma_cid13_p1	gamma_cid13_p2	gamma_cid13_p3	gamma_cid13_p4	gamma_cid13_p5	gamma_cid14_p0
1.5	-0.3499558312406085	-0.02064516147743245	0.6108497805113723	1.595879328731956	-0.3422933754789965	0.1241303059379915	-0.4201247835515519	1.472607781550724	1.47260778155068	0.06148868276555788	-0.174295186606464	0.3978160431336409	0.2340719321231818	0.1646398491978592	0.1775466713228874	1.066893620889647	-3.107801848140515	-0.1204473999942311	-1.007793655749347	0.3029708295620171	-3.148092732608518	-3.14809273260818	-0.3156874124145953	0.003146277487461465	-0.4615274679296689	-0.4336766124042487	-0.2029167286366308	0.003880624613194836	-0.01153710903695934	-0.3003186908482303	0.02953576461193494	0.0254519586958378	0.1972747711731037	-18.17062173768168	-3.100023604721169	-5.237802222328383	-15.12823171591663	-510.5187360767562	-87.6519083907117	-0.02487030760138971	3.158921999636765	1.772039248160437	0.7880266182826901	-6.645455547825391	1.073855117905221	-0.4249719482983978	3.507323428558756	-6.329995590402291	-6.329995590402364	-0.6162709270632578	0.2363219149141833	-3.121520677117293	0.4591065891395009	-9.933651561446292e-08	3.504921352846786e-07	-1.621179747878453e-06	5.445769659413496e-07	1.092562207755304e-07	-1.260660108855269e-06	3.901913493805806e-07
1.51	-0.3481524962274771	-0.01878066268822609	0.6215544373114535	1.564474743270277	-0.3434445496194931	0.1140336040032574	-0.4169178730095852	1.440814338998695	1.440814338998643	0.05829900627068291	-0.1742522237276181	0.3930443362403473	0.2297579213970886	0.1959326697782213	0.1953950287098953	1.07368199179481	-3.172621569483385	-0.1097570665139281	-1.011490556643858	0.3385876987367346	-3.210215737777395	-3.210215737777312	-0.3221745823077262	0.005554327145177817	-0.4927915487466373	-0.4290060897013288	-0.1981010447551712	0.004964264125659822	-0.01140681383753232	-0.2896721167926501	0.02800444959974509	0.02618605512816518	0.1930713050404627	-17.95676018426085	-3.816878929131333	-4.711634578568229	-15.58671443970764	-501.7986954333747	-85.87833739052188	-0.0251269996716551	3.100344446081249	1.797607370935525	0.5709308760064764	-6.326123745194464	1.071599234930072	-0.3331743831060062	3.61533164785106	-6.096578940632137	-6.096578940670477	-0.6536637498211486	0.2586018854657179	-3.12547920818295	0.4892895671674797	-1.90177270551936e-08	2.113874019612122e-07	-2.573109457719025e-06	4.559483307076167e-07	2.042892508105682e-07	-2.123196380699799e-06	5.681444127890739e-07
1.52	-0.3460390565367765	-0.0167364056477568	0.6323163155304616	1.532436781931633	-0.3444878250708193	0.1039017080149612	-0.4133495011786872	1.408411041202877	1.408411041202815	0.05504671333100646	-0.174182069273344	0.3879606630540448	0.2254942687892846	0.2266607847124037	0.2134983215754748	1.078337904674927	-3.234477023533323	-0.09886766216013458	-1.014832466461514	0.3752630873483703	-3.270063781366343	-3.270063781366517	-0.3282107013761824	0.008584592573509249	-0.52392072653146	-0.4236049887464389	-0.1932853608737027	0.006047903638121311	-0.01127651863808242	-0.2790255427370691	0.02647313458755288	0.02692015156048573	0.1888678389078292	-17.76149033053834	-4.527021110624173	-4.190484756618071	-16.04666644593204	-493.2289017327221	-84.24187195057802	-0.02540045854137718	3.045980870400808	1.823026343874756	0.3615350132735101	-6.052602089239334	1.113669292603325	-0.3539737329275997	3.719027315942439	-5.875003274416787	-5.87500327441679	-0.5260607621283493	0.3607650690372078	-3.094540070688133	0.6052222395334992	7.282989338307198e-08	8.010657225339217e-08	-3.602469792926787e-06	3.578709379133689e-07	3.165633755121009e-07	-2.882642276108137e-06	7.478093812538602e-07
1.53	-0.3436212462311263	-0.01451003785878025	0.6431139773023989	1.499795043658062	-0.3454217871556471	0.09373942108784816	-0.409409860100785	1.37542099459976	1.375420994599726	0.05173426137464059	-0.1740789640925486	0.3825667461007383	0.2212874592176135	0.256773111499684	0.2317961816256573	1.080822005346968	-3.293339993202554	-0.08790839527743258	-1.017578865440409	0.4127915351649634	-3.32751448787133	-3.327514487871361	-0.3342107106297879	0.01213575818748292	-0.5547920789897097	-0.4176476247981283	-0.1877510071450604	0.007092432672250132	-0.01112386087229976	-0.2679279818072536	0.02486313757106031	0.0275429398648981	0.1839659472501095	-17.57269365088501	-5.178419466324602	-3.689291162873208	-16.31263120474889	-483.7919614281573	-82.45084343308996	-0.02562449596649953	2.974709888656214	1.836346021199254	0.1360843532384061	-5.723465024121219	1.090232828904528	-0.2273415966814184	3.788714554555587	-5.615651920975192	-5.615651920953778	-0.6262561670430965	0.3660696458783896	-3.072806146965013	0.6080422218466461	1.769268976927709e-07	-4.286135986280354e-08	-4.714100167587185e-06	2.497542402110745e-07	4.471561632967842e-07	-3.53255464655302e-06	9.29293248840958e-07
